HIERARCHY
ROOT Hips
{
	OFFSET 0.000000 0.000000 0.000000
	CHANNELS 6 Xposition Yposition Zposition Xrotation Yrotation Zrotation
	JOINT LeftUpLeg_virtual
	{
		OFFSET 0.000000 0.000000 0.000000
		CHANNELS 3 Xrotation Yrotation Zrotation
		JOINT LeftUpLeg
		{
			OFFSET 10.205400 -3.823500 0.155100
			CHANNELS 3 Xrotation Yrotation Zrotation
			JOINT LeftLeg
			{
				OFFSET 0.708757 -12.982077 0.567790
				CHANNELS 3 Xrotation Yrotation Zrotation
				JOINT LeftFoot
				{
					OFFSET -0.708756 -10.717838 -2.184338
					CHANNELS 3 Xrotation Yrotation Zrotation
					JOINT LeftToeBase
					{
						OFFSET 0.108149 -7.191104 7.560241
						CHANNELS 3 Xrotation Yrotation Zrotation
						JOINT LeftToe_End
						{
							OFFSET 0.070230 0.081724 4.490308
							CHANNELS 3 Xrotation Yrotation Zrotation
							End Site
							{
								OFFSET 0 0 0
							}
						}
					}
				}
			}
		}
	}
	JOINT RightUpLeg_virtual
	{
		OFFSET 0.000000 0.000000 0.000000
		CHANNELS 3 Xrotation Yrotation Zrotation
		JOINT RightUpLeg
		{
			OFFSET -10.205400 -3.823500 0.005500
			CHANNELS 3 Xrotation Yrotation Zrotation
			JOINT RightLeg
			{
				OFFSET -0.708756 -12.982134 0.610632
				CHANNELS 3 Xrotation Yrotation Zrotation
				JOINT RightFoot
				{
					OFFSET 0.708754 -10.717769 -1.945823
					CHANNELS 3 Xrotation Yrotation Zrotation
					JOINT RightToeBase
					{
						OFFSET -0.108140 -7.191069 7.372968
						CHANNELS 3 Xrotation Yrotation Zrotation
						JOINT RightToe_End
						{
							OFFSET -0.070227 0.081735 4.479403
							CHANNELS 3 Xrotation Yrotation Zrotation
							End Site
							{
								OFFSET 0 0 0
							}
						}
					}
				}
			}
		}
	}
	JOINT Spine_virtual
	{
		OFFSET 0.000000 0.000000 0.000000
		CHANNELS 3 Xrotation Yrotation Zrotation
		JOINT Spine
		{
			OFFSET 0.000000 6.876099 0.125700
			CHANNELS 3 Xrotation Yrotation Zrotation
			JOINT Spine1
			{
				OFFSET 0.000000 5.730043 0.104720
				CHANNELS 3 Xrotation Yrotation Zrotation
				JOINT Spine1_split
				{
					OFFSET 0.000000 5.730043 0.104720
					CHANNELS 3 Xrotation Yrotation Zrotation
					JOINT Spine2
					{
						OFFSET 0.000000 5.730043 0.104720
						CHANNELS 3 Xrotation Yrotation Zrotation
						JOINT Neck_virtual
						{
							OFFSET 0.000000 0.000000 0.000000
							CHANNELS 3 Xrotation Yrotation Zrotation
							JOINT Neck
							{
								OFFSET 0.000000 10.314075 0.188496
								CHANNELS 3 Xrotation Yrotation Zrotation
								JOINT Head
								{
									OFFSET 0.000000 7.643700 -2.377400
									CHANNELS 3 Xrotation Yrotation Zrotation
									JOINT HeadTop_End
									{
										OFFSET 0.000000 43.788605 -13.619600
										CHANNELS 3 Xrotation Yrotation Zrotation
										End Site
										{
											OFFSET 0 0 0
										}
									}
								}
							}
						}
						JOINT LeftShoulder_virtual
						{
							OFFSET 0.000000 0.000000 0.000000
							CHANNELS 3 Xrotation Yrotation Zrotation
							JOINT LeftShoulder
							{
								OFFSET 2.196100 4.412489 0.087492
								CHANNELS 3 Xrotation Yrotation Zrotation
								JOINT LeftShoulder_split
								{
									OFFSET 2.196100 4.412489 0.087492
									CHANNELS 3 Xrotation Yrotation Zrotation
									JOINT LeftArm
									{
										OFFSET 8.771219 -2.981674 -0.026999
										CHANNELS 3 Xrotation Yrotation Zrotation
										JOINT LeftForeArm
										{
											OFFSET 8.512804 0.000000 -0.000000
											CHANNELS 3 Xrotation Yrotation Zrotation
											JOINT LeftHand
											{
												OFFSET 18.484802 0.000000 -0.000000
												CHANNELS 3 Xrotation Yrotation Zrotation
												End Site
												{
													OFFSET 0 0 0
												}
											}
										}
									}
								}
							}
						}
						JOINT RightShoulder_virtual
						{
							OFFSET 0.000000 0.000000 0.000000
							CHANNELS 3 Xrotation Yrotation Zrotation
							JOINT RightShoulder
							{
								OFFSET -2.196100 4.412496 0.070690
								CHANNELS 3 Xrotation Yrotation Zrotation
								JOINT RightShoulder_split
								{
									OFFSET -2.196100 4.412496 0.070690
									CHANNELS 3 Xrotation Yrotation Zrotation
									JOINT RightArm
									{
										OFFSET -8.771282 -2.981682 -0.094208
										CHANNELS 3 Xrotation Yrotation Zrotation
										JOINT RightForeArm
										{
											OFFSET -8.494598 0.000000 0.000000
											CHANNELS 3 Xrotation Yrotation Zrotation
											JOINT RightHand
											{
												OFFSET -18.483803 0.000000 0.000001
												CHANNELS 3 Xrotation Yrotation Zrotation
												End Site
												{
													OFFSET 0 0 0
												}
											}
										}
									}
								}
							}
						}
					}
				}
			}
		}
	}
}
MOTION
Frames: 11
Frame Time: 0.03333333
-2.860152 31.733547 0.368219 0.000000 0.000000 0.000000 3.309372 29.710138 0.762157 -29.753069 -19.318562 1.678822 34.584041 13.104781 -9.549106 -4.237076 0.313898 -7.859279 2.675191 -1.430451 0.015162 0.000000 0.000000 0.000000 4.258024 27.941462 0.461795 11.262202 -23.125603 -10.027305 26.012610 -6.295687 10.782291 -35.370486 -12.237734 -0.157213 -2.325841 -0.043057 0.070545 0.000000 0.000000 0.000000 4.540093 29.007004 -0.368133 3.722413 4.576564 -0.976085 0.450905 3.205027 0.508079 0.441464 0.732677 0.092081 0.000000 0.000000 0.000000 1.591276 2.812365 0.872099 -3.121314 11.910817 -6.867126 -6.256366 9.349148 10.022527 0.000000 0.000000 0.000000 0.433166 3.082177 0.907626 -0.033080 -2.031514 -3.187360 2.812429 -1.157078 -0.146786 -74.337921 -0.186117 -25.556379 1.322800 -65.438868 3.276159 0.000000 0.000000 0.000000 1.172448 3.054686 0.895772 4.222961 12.193620 8.157117 -5.265265 -0.455327 0.386204 14.573349 -6.139071 67.243998 16.940548 40.724388 -6.998333 0.000000 0.000000 0.000000 
-2.836855 31.788338 0.274765 0.000000 0.000000 0.000000 3.866345 26.843680 0.511082 -28.998610 -18.623148 3.364090 34.199327 14.001202 -9.506114 -4.406108 0.711889 -8.263217 2.859407 -1.450051 -0.111269 0.000000 0.000000 0.000000 4.909726 25.181630 0.231509 9.962076 -21.571843 -9.916624 25.812726 -5.929174 10.575597 -34.362019 -12.058765 -0.183046 -2.377921 -0.049688 -0.064125 0.000000 0.000000 0.000000 5.083555 26.326747 -0.614612 3.729039 4.352234 -1.127114 0.584595 3.075157 0.502720 0.414839 0.832872 0.019656 0.000000 0.000000 0.000000 1.676077 2.671944 0.846351 -3.885413 8.598891 -6.294501 -4.596653 6.165725 10.432354 0.000000 0.000000 0.000000 0.486477 2.938069 0.876733 -0.024904 -2.619661 -3.302684 2.734385 -0.964130 -0.009276 -74.749167 0.288721 -26.706690 1.894395 -67.688165 3.470142 0.000000 0.000000 0.000000 1.289006 2.908888 0.866662 4.201873 12.031499 7.954552 -5.281426 -0.333263 0.314856 14.020984 -5.936855 67.292922 17.360673 41.999427 -7.354553 0.000000 0.000000 0.000000 
-2.803463 31.841507 0.163584 0.000000 0.000000 0.000000 4.463324 23.812007 0.248309 -28.329854 -18.080440 5.116877 33.853068 15.081789 -9.450604 -4.567285 1.239122 -8.757708 3.065099 -1.445214 -0.289581 0.000000 0.000000 0.000000 5.590432 22.194261 -0.000996 8.515794 -19.915981 -9.782393 25.608937 -5.433351 10.381071 -33.291985 -11.820833 -0.139697 -2.496244 -0.068567 -0.165107 0.000000 0.000000 0.000000 5.668325 23.386505 -0.855695 3.710362 4.121944 -1.259511 0.745585 2.933173 0.493453 0.410116 1.020788 -0.020861 0.000000 0.000000 0.000000 1.779696 2.524529 0.822074 -4.953452 5.259832 -5.837627 -2.956854 3.073796 10.656763 0.000000 0.000000 0.000000 0.553476 2.806471 0.847710 -0.002486 -3.285112 -3.313339 2.657695 -0.905485 0.083899 -75.025373 0.659960 -28.116568 2.728915 -70.078390 3.914985 0.000000 0.000000 0.000000 1.437439 2.766135 0.826975 4.157087 11.779308 7.715980 -5.229567 -0.205511 0.262847 13.493433 -5.602231 67.306672 17.841781 43.374023 -7.761449 0.000000 0.000000 0.000000 
-2.758530 31.894041 0.040228 0.000000 0.000000 0.000000 5.074219 20.577017 -0.018204 -27.720041 -17.663445 6.939160 33.568177 16.323763 -9.370669 -4.689989 1.885165 -9.365457 3.243958 -1.420478 -0.511402 0.000000 0.000000 0.000000 6.250320 18.966938 -0.221923 6.979901 -18.178840 -9.571988 25.377768 -4.798756 10.186753 -32.225379 -11.496173 -0.067863 -2.648354 -0.104479 -0.212330 0.000000 0.000000 0.000000 6.258189 20.147492 -1.068882 3.670819 3.881435 -1.361205 0.921741 2.772800 0.486651 0.411240 1.299096 -0.004125 0.000000 0.000000 0.000000 1.892820 2.366872 0.805219 -6.321585 1.840920 -5.419338 -1.285955 -0.029956 10.729124 0.000000 0.000000 0.000000 0.634920 2.683043 0.824042 0.039311 -3.995959 -3.224855 2.577278 -1.010787 0.135567 -75.131835 0.812022 -29.794108 3.860372 -72.237925 4.651304 0.000000 0.000000 0.000000 1.618228 2.626131 0.781033 4.092701 11.478764 7.461920 -5.091848 -0.042482 0.188366 13.040125 -5.109263 67.209082 18.354844 44.758728 -8.171725 0.000000 0.000000 0.000000 
-2.701186 31.944935 -0.094166 0.000000 0.000000 0.000000 5.664976 17.076494 -0.268226 -27.146273 -17.294321 8.844661 33.383110 17.632106 -9.263825 -4.783405 2.601935 -10.084477 3.370043 -1.378666 -0.749524 0.000000 0.000000 0.000000 6.851881 15.453827 -0.415819 5.396289 -16.386682 -9.275992 25.093068 -4.018684 9.994682 -31.215498 -11.059017 -0.015806 -2.743229 -0.153864 -0.203393 0.000000 0.000000 0.000000 6.800444 16.594979 -1.243370 3.626535 3.625235 -1.426444 1.101983 2.594520 0.491977 0.427112 1.562031 0.037954 0.000000 0.000000 0.000000 1.995395 2.198182 0.802486 -7.924275 -1.703469 -4.940546 0.431495 -3.250939 10.704313 0.000000 0.000000 0.000000 0.735994 2.551193 0.805692 0.101326 -4.726383 -3.046374 2.433584 -1.223746 0.147849 -75.100908 0.687213 -31.621758 5.128819 -73.699797 5.533247 0.000000 0.000000 0.000000 1.821725 2.485162 0.743671 4.011379 11.187832 7.226275 -4.870937 0.166295 0.044380 12.669414 -4.473087 66.932097 18.827410 45.971913 -8.505616 0.000000 0.000000 0.000000 
-2.630771 31.994017 -0.236666 0.000000 0.000000 0.000000 6.202040 13.247820 -0.479544 -26.548681 -16.842814 10.826897 33.305911 18.936303 -9.135729 -4.929303 3.344222 -10.851410 3.496577 -1.327869 -0.988179 0.000000 0.000000 0.000000 7.372074 11.624584 -0.566361 3.794608 -14.571027 -8.913559 24.755015 -3.072411 9.804376 -30.239071 -10.495939 0.035502 -2.746229 -0.209927 -0.164614 0.000000 0.000000 0.000000 7.276811 12.691645 -1.367622 3.596625 3.342769 -1.454721 1.269674 2.395036 0.515243 0.475273 1.809377 0.052766 0.000000 0.000000 0.000000 2.071403 2.015921 0.824214 -9.656617 -5.404062 -4.332966 2.198528 -6.650559 10.627618 0.000000 0.000000 0.000000 0.840774 2.400865 0.793637 0.177892 -5.463658 -2.829661 2.234236 -1.472024 0.220103 -74.988893 0.332458 -33.410120 6.206101 -74.178866 6.250824 0.000000 0.000000 0.000000 2.027405 2.340194 0.727813 3.922691 10.946900 7.034252 -4.630150 0.424252 -0.144731 12.351893 -3.772750 66.401364 19.161064 46.837783 -8.675151 0.000000 0.000000 0.000000 
-2.540513 32.036972 -0.374571 0.000000 0.000000 0.000000 6.657545 9.055890 -0.621087 -25.891114 -16.128011 12.870373 33.316409 20.140575 -8.990972 -5.214005 4.052744 -11.618456 3.628748 -1.274900 -1.201821 0.000000 0.000000 0.000000 7.795839 7.496214 -0.654340 2.168316 -12.747841 -8.536602 24.390112 -1.904824 9.610188 -29.229091 -9.803815 0.191287 -2.730329 -0.265659 -0.143832 0.000000 0.000000 0.000000 7.659015 8.435522 -1.429261 3.599540 3.027934 -1.442853 1.401405 2.178627 0.556773 0.540731 1.992003 0.026771 0.000000 0.000000 0.000000 2.104107 1.821898 0.867501 -11.369297 -9.255661 -3.571787 3.983367 -10.217922 10.539565 0.000000 0.000000 0.000000 0.939301 2.227923 0.788234 0.260870 -6.168285 -2.624417 1.940928 -1.662797 0.355601 -74.823309 -0.178523 -34.961700 6.796381 -73.775359 6.517557 0.000000 0.000000 0.000000 2.208168 2.191252 0.736694 3.831201 10.777610 6.890131 -4.406973 0.708774 -0.370871 12.009855 -3.115549 65.626623 19.276740 47.279983 -8.637936 0.000000 0.000000 0.000000 
-2.431742 32.072594 -0.500462 0.000000 0.000000 0.000000 7.025240 4.513093 -0.672603 -25.192275 -15.010374 14.953401 33.420379 21.175275 -8.856546 -5.664515 4.667947 -12.387900 3.733446 -1.227881 -1.366861 0.000000 0.000000 0.000000 8.132016 3.054926 -0.661999 0.526980 -10.927768 -8.184472 24.037652 -0.492144 9.397340 -28.141006 -8.991522 0.529345 -2.753364 -0.316751 -0.181157 0.000000 0.000000 0.000000 7.932524 3.825685 -1.414575 3.648623 2.677090 -1.391686 1.484893 1.951042 0.608525 0.585828 2.127449 -0.027135 0.000000 0.000000 0.000000 2.098188 1.619521 0.925163 -12.936660 -13.202894 -2.676428 5.719067 -13.916552 10.442208 0.000000 0.000000 0.000000 1.011844 2.036457 0.786338 0.338591 -6.794486 -2.471974 1.596391 -1.829964 0.567392 -74.649938 -0.733760 -36.159199 6.955890 -72.905740 6.394435 0.000000 0.000000 0.000000 2.345499 2.035007 0.763262 3.751413 10.657152 6.769707 -4.216609 1.001878 -0.607547 11.576302 -2.611855 64.668620 19.171205 47.343378 -8.413810 0.000000 0.000000 0.000000 
-2.301368 32.094437 -0.601044 0.000000 0.000000 0.000000 7.318370 -0.323838 -0.618467 -24.519431 -13.347165 17.031475 33.661559 21.998911 -8.790745 -6.227673 5.133812 -13.138792 3.747002 -1.192101 -1.466770 0.000000 0.000000 0.000000 8.414649 -1.656229 -0.571501 -1.140898 -9.134656 -7.876184 23.735380 1.144295 9.147041 -27.031078 -8.067690 1.023993 -2.782844 -0.357513 -0.287127 0.000000 0.000000 0.000000 8.121177 -1.064329 -1.311383 3.742314 2.289297 -1.294617 1.512114 1.711435 0.659308 0.630986 2.306568 -0.064379 0.000000 0.000000 0.000000 2.052901 1.403439 0.984154 -14.253618 -17.150967 -1.718476 7.342488 -17.615850 10.331886 0.000000 0.000000 0.000000 1.047394 1.829001 0.785591 0.401279 -7.315276 -2.437509 1.157266 -2.000685 0.813114 -74.399987 -1.253867 -36.989750 6.922566 -72.089751 6.104441 0.000000 0.000000 0.000000 2.427060 1.865185 0.791515 3.697080 10.534480 6.628101 -4.043170 1.304483 -0.843766 10.972644 -2.305015 63.650977 18.890558 47.167965 -8.076198 0.000000 0.000000 0.000000 
-2.150890 32.100922 -0.674078 0.000000 0.000000 0.000000 7.561612 -5.372610 -0.441181 -23.983304 -11.095868 19.075373 34.098651 22.587782 -8.831469 -6.811998 5.421127 -13.849803 3.621605 -1.169205 -1.489624 0.000000 0.000000 0.000000 8.675385 -6.581538 -0.366407 -2.830328 -7.368178 -7.611583 23.519700 2.953939 8.838337 -26.014210 -7.037193 1.576639 -2.718112 -0.380732 -0.433960 0.000000 0.000000 0.000000 8.248098 -6.157748 -1.102669 3.865806 1.867818 -1.149538 1.494170 1.458246 0.697887 0.627506 2.469767 -0.031904 0.000000 0.000000 0.000000 1.984971 1.172101 1.028820 -15.248906 -20.965453 -0.768680 8.752915 -21.190361 10.184237 0.000000 0.000000 0.000000 1.055805 1.605894 0.775130 0.446457 -7.727904 -2.532881 0.679277 -2.204795 1.023664 -74.007285 -1.676424 -37.520456 6.859024 -71.668533 5.806168 0.000000 0.000000 0.000000 2.457862 1.674378 0.805761 3.676756 10.354487 6.423595 -3.824910 1.605482 -1.052378 10.134934 -2.150174 62.731080 18.517510 46.869687 -7.713541 0.000000 0.000000 0.000000 
-1.979925 32.091290 -0.723021 0.000000 0.000000 0.000000 7.801010 -10.529341 -0.136107 -23.661729 -8.259043 21.036877 34.718333 22.960777 -8.997469 -7.409947 5.547020 -14.461302 3.447722 -1.164004 -1.452688 0.000000 0.000000 0.000000 8.953476 -11.641707 -0.023930 -4.562747 -5.637620 -7.387185 23.455220 4.864582 8.465922 -25.156278 -5.917041 2.059451 -2.448674 -0.379672 -0.573439 0.000000 0.000000 0.000000 8.379798 -11.340953 -0.778233 3.999693 1.421383 -0.958652 1.454704 1.186096 0.715202 0.668692 2.633164 0.025268 0.000000 0.000000 0.000000 1.910723 0.918650 1.053404 -15.920005 -24.500765 0.098876 9.882267 -24.492797 9.990414 0.000000 0.000000 0.000000 1.052021 1.360879 0.747572 0.478479 -8.077830 -2.737446 0.192809 -2.440408 1.148114 -73.481750 -1.987671 -37.865158 6.853668 -71.623809 5.582660 0.000000 0.000000 0.000000 2.455408 1.451824 0.797736 3.697225 10.075739 6.145273 -3.588125 1.899633 -1.200756 9.053119 -2.051795 62.022325 18.124016 46.495936 -7.376124 0.000000 0.000000 0.000000 
